<svg width="60" height="24" viewBox="0 0 60 24" fill="none" xmlns="http://www.w3.org/2000/svg">
<g clip-path="url(#clip0_2016_57)">
<path d="M52.3019 17.428C52.3019 18.3088 52.3099 18.7812 52.2379 19.4919C51.9179 22.7669 49.3219 24 46.9079 24C44.2139 24 42.7079 22.5627 42.4339 21.6679C42.3759 21.4817 42.4459 21.3396 42.5779 21.2795C42.6859 21.2295 42.8179 21.2475 43.0499 21.3255C44.0079 21.6418 45.3619 21.6238 46.2699 21.0993C47.3539 20.4748 47.5599 19.7241 47.5599 17.0516V7.59897C47.5599 6.90233 47.8579 6.60606 48.5539 6.60606H51.3079C52.0019 6.60606 52.3019 6.90433 52.3019 7.59897V17.428ZM49.9319 4.74635C51.2419 4.74635 52.3019 3.68338 52.3019 2.37418C52.3019 1.06297 51.2419 0 49.9319 0C48.6219 0 47.5599 1.06297 47.5599 2.37418C47.5599 3.68538 48.6219 4.74635 49.9319 4.74635ZM32.9159 10.5597H28.2579C28.3839 9.71491 29.1779 8.4037 30.8439 8.4037C32.3899 8.4037 32.9799 9.78097 32.9159 10.5597ZM30.7799 5.60113C26.2979 5.60113 23.0219 8.25156 23.0219 12.2973C23.0219 16.3049 25.8219 18.8012 29.8279 19.0715C31.5639 19.1896 34.6839 19.1015 36.4419 16.5872C36.8299 16.0007 37.0079 15.3921 36.9859 15.0498C36.9719 14.8236 36.7559 14.7075 36.5279 14.7956C36.3319 14.8716 34.3219 16.2569 31.5319 15.8826C29.8519 15.6584 28.2799 14.5513 28.1979 12.8978H36.5559C37.2519 12.8978 37.5499 12.5975 37.5499 11.9049C37.5499 8.80207 35.1219 5.60113 30.7799 5.60113ZM39.7839 2.37418C39.7859 1.06297 40.8459 0 42.1539 0C43.4639 0 44.5259 1.06297 44.5259 2.37418C44.5259 3.68538 43.4639 4.74635 42.1539 4.74635C40.8439 4.74635 39.7859 3.68338 39.7859 2.37418M44.5259 17.416V7.60097C44.5259 6.90433 44.2259 6.60806 43.5339 6.60806H40.7799C40.0859 6.60806 39.7879 6.90633 39.7879 7.60097V17.416C39.7879 18.1126 40.0859 18.4109 40.7799 18.4109H43.5339C44.2299 18.4109 44.5259 18.1206 44.5259 17.416ZM59.0079 18.4109H56.2519C55.5559 18.4109 55.2599 18.1126 55.2599 17.416V7.60097C55.2599 6.90433 55.5579 6.60806 56.2519 6.60806H59.0079C59.6999 6.60806 59.9999 6.90633 59.9999 7.60097V17.41C59.9999 18.1126 59.7019 18.4109 59.0079 18.4109ZM57.6299 4.74835C58.9399 4.74835 59.9999 3.68538 59.9999 2.37618C59.9999 1.06297 58.9379 0 57.6299 0C56.3199 0 55.2579 1.06297 55.2579 2.37418C55.2579 3.68538 56.3199 4.74635 57.6299 4.74635M20.7659 11.7708V17.416C20.7659 18.1126 20.4679 18.4109 19.7719 18.4109H17.0179C16.3239 18.4109 16.0239 18.1126 16.0239 17.416V12.5615C16.0239 10.7519 15.3959 10.0192 14.3039 9.99116C13.8599 9.97915 13.1859 10.1853 12.6439 10.4856C12.6439 10.4856 12.8239 11.2503 12.7819 15.8085V17.416C12.7819 18.1126 12.4839 18.4109 11.7899 18.4109H9.03586C8.33986 18.4109 8.04386 18.1126 8.04386 17.416V12.5615C8.04386 10.7519 7.41386 10.0192 6.32186 9.99116C5.87986 9.97915 5.29586 10.1433 4.75186 10.4396V17.414C4.75186 18.1106 4.45386 18.4089 3.75986 18.4089H1.00586C0.309864 18.4089 0.0118642 18.1106 0.0118642 17.414V7.66102C0.0118642 7.03245 -0.0421358 6.37785 0.159864 6.17566C0.381864 5.95546 0.731864 6.01151 1.04586 6.21169C1.54986 6.52798 2.53786 6.94036 3.49386 6.94036C4.24786 6.94036 4.68386 6.85829 6.04986 6.49395C7.44386 6.13162 8.20186 5.84536 8.98186 5.79731C10.5079 5.70123 11.9879 6.25573 12.2019 7.35674C13.9019 6.26574 15.2739 5.98949 16.6379 5.98949C17.7259 5.98949 18.7559 6.3238 19.4259 6.93836C20.5139 7.88923 20.7699 9.19843 20.7699 11.7668" fill="#ED1C24"/>
</g>
<defs>
<clipPath id="clip0_2016_57">
<rect width="60" height="24" fill="white"/>
</clipPath>
</defs>
</svg>
