<svg width="47" height="45" viewBox="0 0 47 45" fill="none" xmlns="http://www.w3.org/2000/svg">
<g clip-path="url(#clip0_2016_8)">
<path d="M23.04 45C35.7646 45 46.08 34.9264 46.08 22.5C46.08 10.0736 35.7646 0 23.04 0C10.3154 0 0 10.0736 0 22.5C0 34.9264 10.3154 45 23.04 45Z" fill="#522B2D"/>
<path d="M23.0398 19.8169C22.5325 20.3157 22.5326 20.316 22.5326 20.316L22.533 20.3163L22.5339 20.3171L22.5363 20.3194L22.544 20.3268C22.5504 20.333 22.5594 20.3415 22.5709 20.3524C22.5939 20.374 22.6267 20.4046 22.6688 20.4429C22.753 20.5193 22.8741 20.6269 23.0269 20.7552C23.3315 21.011 23.7654 21.3527 24.2832 21.6955C25.2904 22.3622 26.732 23.1132 28.2008 23.1132C29.6422 23.1132 30.9827 22.4946 31.919 21.9275C32.2528 21.7255 32.5454 21.5236 32.785 21.3466C33.0418 21.9436 33.187 22.5988 33.1942 23.2863V23.2866C33.2269 26.3688 31.8757 28.8193 29.8595 30.9361C27.9342 32.9575 25.4458 34.6316 23.041 36.2296C20.6358 34.6307 18.1469 32.9571 16.2211 30.936C14.2045 28.8196 12.8528 26.3696 12.8856 23.2866V23.2863C12.9142 20.4993 15.2114 18.2532 17.9725 18.2532C19.1611 18.2532 20.2917 18.745 21.1587 19.2785C21.5861 19.5413 21.9339 19.8046 22.1738 20.0011C22.2933 20.0993 22.3851 20.18 22.4458 20.2349C22.476 20.2622 22.4984 20.2832 22.5123 20.2965C22.5194 20.303 22.5243 20.3079 22.527 20.3105L22.5288 20.3122L22.5291 20.3125L22.5293 20.3127L22.5296 20.3129V20.313L22.5306 20.314L22.5325 20.3157L23.0398 19.8169Z" stroke="#522B2D" stroke-width="9"/>
<path d="M20.7 16.3477C23.0859 16.3477 25.02 14.4589 25.02 12.1289C25.02 9.79895 23.0859 7.91016 20.7 7.91016C18.3141 7.91016 16.38 9.79895 16.38 12.1289C16.38 14.4589 18.3141 16.3477 20.7 16.3477Z" fill="#522B2D"/>
<path d="M28.98 20.0391C30.3717 20.0391 31.5 18.9373 31.5 17.5781C31.5 16.219 30.3717 15.1172 28.98 15.1172C27.5882 15.1172 26.46 16.219 26.46 17.5781C26.46 18.9373 27.5882 20.0391 28.98 20.0391Z" fill="#522B2D"/>
<path d="M46.08 22.5C46.08 10.0736 35.7646 0 23.04 0C10.3154 0 0 10.0736 0 22.5C0 34.9264 10.3154 45 23.04 45C35.7646 45 46.08 34.9264 46.08 22.5Z" fill="#522B2D"/>
<path d="M34.5598 16.1719V26.7188C34.5598 32.9319 29.4022 37.9688 23.0398 37.9688C22.2222 37.9688 21.4245 37.8856 20.6549 37.7273C15.705 23.9062 31.545 16.1719 34.5598 16.1719Z" fill="url(#paint0_radial_2016_8)"/>
<path d="M22.185 37.9248C21.6646 37.8875 21.1538 37.8298 20.6549 37.7273C18.6162 32.0346 20.1043 27.3746 22.7706 23.8623C26.775 28.3887 25.2 37.9248 22.185 37.9248Z" fill="url(#paint1_radial_2016_8)"/>
<path d="M11.52 18.2812C14.535 18.2812 20.6585 22.1484 23.175 26.4111C25.6914 30.6737 25.2264 38.1853 22.0739 37.9297C16.1637 37.4505 11.52 32.6142 11.52 26.7187V18.2812Z" fill="#B8A39D"/>
<path d="M27.36 16.1719C29.9447 16.1719 32.04 14.1257 32.04 11.6016C32.04 9.07745 29.9447 7.03125 27.36 7.03125C24.7753 7.03125 22.68 9.07745 22.68 11.6016C22.68 14.1257 24.7753 16.1719 27.36 16.1719Z" fill="url(#paint2_radial_2016_8)"/>
<path d="M17.28 17.9297C18.8706 17.9297 20.16 16.6705 20.16 15.1172C20.16 13.5639 18.8706 12.3047 17.28 12.3047C15.6894 12.3047 14.4 13.5639 14.4 15.1172C14.4 16.6705 15.6894 17.9297 17.28 17.9297Z" fill="#B8A39D"/>
</g>
<defs>
<radialGradient id="paint0_radial_2016_8" cx="0" cy="0" r="1" gradientUnits="userSpaceOnUse" gradientTransform="translate(27.1319 27.0703) rotate(90) scale(10.8984 10.4515)">
<stop stop-color="#FFF7EB"/>
<stop offset="1" stop-color="#FFEED3"/>
</radialGradient>
<radialGradient id="paint1_radial_2016_8" cx="0" cy="0" r="1" gradientUnits="userSpaceOnUse" gradientTransform="translate(22.4374 30.8936) rotate(90) scale(7.03125 3.84593)">
<stop stop-color="#FFF7EB"/>
<stop offset="1" stop-color="#FFEED3"/>
</radialGradient>
<radialGradient id="paint2_radial_2016_8" cx="0" cy="0" r="1" gradientUnits="userSpaceOnUse" gradientTransform="translate(27.36 11.6016) rotate(90) scale(4.57031 6.58507)">
<stop stop-color="#FFF7EB"/>
<stop offset="1" stop-color="#FFEED3"/>
</radialGradient>
<clipPath id="clip0_2016_8">
<rect width="47" height="45" fill="white"/>
</clipPath>
</defs>
</svg>
