<svg width="41" height="39" viewBox="0 0 41 39" fill="none" xmlns="http://www.w3.org/2000/svg">
<g clip-path="url(#clip0_2040_61)">
<path d="M8.06169 0H33.912C37.8313 0 41 3.16667 41 7.08333V31.9167C41 35.8333 37.8313 39 33.912 39H8.06169C4.14244 39 0.973694 35.8333 0.973694 31.9167V7.08333C0.973694 3.16667 4.14244 0 8.06169 0Z" fill="#00005B"/>
<path d="M17.0509 23.3334H10.8468L9.57935 27.2668C9.54599 27.4168 9.41257 27.5168 9.26247 27.5001H6.12708C5.94363 27.5001 5.89359 27.4001 5.94363 27.2001L11.3138 11.8168C11.3639 11.6501 11.4139 11.5001 11.4806 11.3001C11.5473 10.9501 11.5807 10.5834 11.5807 10.2168C11.564 10.1334 11.6307 10.0501 11.7141 10.0334H11.7641H16.0336C16.1503 10.0334 16.2337 10.0834 16.2504 10.1668L22.3377 27.1668C22.3878 27.3501 22.3377 27.4334 22.171 27.4334H18.6853C18.5686 27.4501 18.4518 27.3668 18.4185 27.2501L17.0509 23.2501V23.3334ZM11.8142 20.0168H16.0503C15.9502 19.6668 15.8168 19.2501 15.6667 18.8168C15.5166 18.3668 15.3665 17.8834 15.2164 17.3834C15.0496 16.8668 14.8995 16.3668 14.7327 15.8501C14.566 15.3334 14.4159 14.8501 14.2824 14.3668C14.149 13.9001 14.0323 13.4668 13.9155 13.0668H13.8822C13.7321 13.7834 13.5486 14.5001 13.3151 15.2168C13.065 16.0168 12.8148 16.8501 12.548 17.6834C12.3312 18.5334 12.0643 19.3168 11.8142 20.0168Z" fill="#9999FF"/>
<path d="M32.1609 21.8333H26.8741C26.9408 22.35 27.1076 22.8666 27.3911 23.3166C27.6913 23.7666 28.1082 24.1166 28.6085 24.3166C29.2756 24.6 30.0095 24.75 30.7433 24.7333C31.327 24.7166 31.9107 24.6666 32.4777 24.55C32.9948 24.4833 33.4951 24.35 33.9621 24.1666C34.0454 24.1 34.0955 24.1333 34.0955 24.3V26.85C34.0955 26.9166 34.0788 26.9833 34.0621 27.05C34.0288 27.1 33.9954 27.1333 33.9454 27.1666C33.4117 27.4 32.8613 27.5666 32.2776 27.6666C31.4938 27.8166 30.7099 27.8833 29.9094 27.8666C28.6419 27.8666 27.5745 27.6666 26.7073 27.2833C25.8901 26.9333 25.1729 26.3833 24.6059 25.7C24.0722 25.05 23.6886 24.3166 23.4552 23.5166C23.2217 22.7333 23.1049 21.9166 23.1049 21.0833C23.1049 20.1833 23.2383 19.3 23.5219 18.4333C23.7887 17.6 24.2056 16.8333 24.7727 16.15C25.323 15.4833 26.0068 14.95 26.7907 14.5666C27.5745 14.1833 28.5085 14.05 29.5758 14.05C30.4598 14.0333 31.3437 14.2 32.1609 14.5666C32.8447 14.8666 33.4451 15.3166 33.912 15.9C34.3456 16.4666 34.6959 17.1 34.9127 17.8C35.1295 18.4666 35.2296 19.15 35.2296 19.8333C35.2296 20.2333 35.2129 20.5833 35.1962 20.9C35.1628 21.2166 35.1462 21.45 35.1295 21.6C35.1128 21.7166 35.0127 21.8166 34.896 21.8166C34.7959 21.8166 34.6125 21.8333 34.3456 21.85C34.0788 21.8833 33.7619 21.9 33.3783 21.9C32.9948 21.9 32.5945 21.8333 32.1609 21.8333ZM26.8741 19.4H30.393C30.8267 19.4 31.1435 19.4 31.3437 19.3833C31.4771 19.3666 31.6105 19.3333 31.7273 19.25V19.0833C31.7273 18.8666 31.6939 18.6666 31.6272 18.4666C31.327 17.5333 30.4431 16.9 29.4591 16.9333C28.5418 16.8833 27.6746 17.3666 27.241 18.2C27.0408 18.5833 26.9241 18.9833 26.8741 19.4Z" fill="#9999FF"/>
</g>
<defs>
<clipPath id="clip0_2040_61">
<rect width="40.0263" height="39" fill="white" transform="translate(0.973694)"/>
</clipPath>
</defs>
</svg>
