<svg width="40" height="40" viewBox="0 0 40 40" fill="none" xmlns="http://www.w3.org/2000/svg">
<g clip-path="url(#clip0_2040_17)">
<path d="M13.5013 40.0001C17.0886 40.0001 20 37.0134 20 33.3334V26.6667H13.5013C9.91404 26.6667 7.00262 29.6534 7.00262 33.3334C7.00262 37.0134 9.91404 40.0001 13.5013 40.0001Z" fill="#0ACF83"/>
<path d="M7.00262 19.9999C7.00262 16.3199 9.91404 13.3333 13.5013 13.3333H20V26.6666H13.5013C9.91404 26.6666 7.00262 23.6799 7.00262 19.9999Z" fill="#A259FF"/>
<path d="M7.00305 6.66667C7.00305 2.98667 9.91447 0 13.5018 0H20.0005V13.3333H13.5018C9.91447 13.3333 7.00305 10.3467 7.00305 6.66667Z" fill="#F24E1E"/>
<path d="M20.0001 0H26.4988C30.086 0 32.9975 2.98667 32.9975 6.66667C32.9975 10.3467 30.086 13.3333 26.4988 13.3333H20.0001V0Z" fill="#FF7262"/>
<path d="M32.9975 19.9999C32.9975 23.6799 30.086 26.6666 26.4988 26.6666C22.9115 26.6666 20.0001 23.6799 20.0001 19.9999C20.0001 16.3199 22.9115 13.3333 26.4988 13.3333C30.086 13.3333 32.9975 16.3199 32.9975 19.9999Z" fill="#1ABCFE"/>
</g>
<defs>
<clipPath id="clip0_2040_17">
<rect width="26" height="40" fill="white" transform="translate(7)"/>
</clipPath>
</defs>
</svg>
