<svg width="41" height="37" viewBox="0 0 41 37" fill="none" xmlns="http://www.w3.org/2000/svg">
<g clip-path="url(#clip0_2043_9)">
<path d="M20.4916 21.8846C22.509 21.8846 24.1445 20.2491 24.1445 18.2317C24.1445 16.2143 22.509 14.5789 20.4916 14.5789C18.4742 14.5789 16.8388 16.2143 16.8388 18.2317C16.8388 20.2491 18.4742 21.8846 20.4916 21.8846Z" fill="#61DAFB"/>
<path d="M20.4916 25.7156C31.3168 25.7156 40.0923 22.3649 40.0923 18.2317C40.0923 14.0985 31.3168 10.7478 20.4916 10.7478C9.66646 10.7478 0.89093 14.0985 0.89093 18.2317C0.89093 22.3649 9.66646 25.7156 20.4916 25.7156Z" stroke="#61DAFB"/>
<path d="M14.0104 21.9737C19.4229 31.3486 26.7125 37.2731 30.292 35.2065C33.8715 33.1398 32.3854 23.8647 26.9729 14.4898C21.5603 5.11497 14.2708 -0.809536 10.6913 1.25709C7.11178 3.32371 8.59779 12.5989 14.0104 21.9737Z" stroke="#61DAFB"/>
<path d="M14.0104 14.4898C8.59778 23.8647 7.11176 33.1398 10.6913 35.2065C14.2708 37.2731 21.5603 31.3486 26.9728 21.9737C32.3854 12.5989 33.8714 3.3237 30.2919 1.25707C26.7125 -0.809548 19.4229 5.11495 14.0104 14.4898Z" stroke="#61DAFB"/>
</g>
<defs>
<clipPath id="clip0_2043_9">
<rect width="40.9833" height="36.4635" fill="white"/>
</clipPath>
</defs>
</svg>
