<svg width="40" height="32" viewBox="0 0 40 32" fill="none" xmlns="http://www.w3.org/2000/svg">
<path d="M39.3497 13.1479C38.3691 12.4789 35.7922 12.1931 33.9188 12.7046C33.8177 10.8132 32.8556 9.21937 31.0954 7.82871L30.4438 7.38536L30.0095 8.05013C29.1559 9.36358 28.7962 11.1134 28.9237 12.704C29.0242 13.684 29.3605 14.7857 30.0095 15.5851C27.5712 17.0186 25.3238 16.6932 15.3707 16.6932H0.00344998C-0.0415081 18.9711 0.319743 23.3532 3.06906 26.9204C3.37266 27.3145 3.70588 27.6956 4.06713 28.0629C6.30234 30.3316 9.67949 31.9952 14.7296 32C22.4338 32.007 29.0347 27.7862 33.0498 17.5804C34.371 17.6024 37.8587 17.8206 39.5655 14.4775C39.6073 14.4212 39.9997 13.5908 39.9997 13.5908L39.3492 13.1474L39.3497 13.1479ZM10.0323 11.0646H5.71101V15.4446H10.0323V11.0646ZM15.615 11.0646H11.2937V15.4446H15.615V11.0646ZM21.1977 11.0646H16.8765V15.4446H21.1977V11.0646ZM26.7805 11.0646H22.4592V15.4446H26.7805V11.0646ZM4.44954 11.0646H0.128275V15.4446H4.44954V11.0646ZM10.0323 5.53258H5.71101V9.91255H10.0323V5.53258ZM15.615 5.53258H11.2937V9.91255H15.615V5.53258ZM21.1977 5.53258H16.8765V9.91255H21.1977V5.53258ZM21.1977 0H16.8765V4.37996H21.1977V0Z" fill="#1D63ED"/>
</svg>
