<svg width="36" height="36" viewBox="0 0 36 36" fill="none" xmlns="http://www.w3.org/2000/svg">
<g clip-path="url(#clip0_2041_34)">
<path d="M33.0358 -0.0539551H2.83759C1.22048 -0.0539551 -0.0904541 1.25697 -0.0904541 2.87409V33.1667C-0.0904541 34.7838 1.22048 36.0947 2.83759 36.0947H33.0358C34.6529 36.0947 35.9638 34.7838 35.9638 33.1667V2.87409C35.9638 1.25697 34.6529 -0.0539551 33.0358 -0.0539551Z" fill="url(#paint0_linear_2041_34)"/>
<path d="M27.383 7.05969C28.3719 7.2062 29.0545 8.12788 28.9086 9.1179C28.7626 10.1082 27.8427 10.793 26.8534 10.6465C25.1017 10.3869 22.4773 13.1149 19.5392 18.7241C15.7884 25.8849 12.2971 29.2967 8.62156 29.0244C7.62451 28.9506 6.87656 28.0811 6.95012 27.083C7.0237 26.0847 7.89128 25.3346 8.8885 25.4085C10.7036 25.543 13.3696 22.6988 16.334 17.0394C20.1088 9.83282 23.6475 6.50627 27.383 7.05969Z" fill="white"/>
</g>
<defs>
<linearGradient id="paint0_linear_2041_34" x1="9.31551" y1="372.434" x2="3444.62" y2="2611.12" gradientUnits="userSpaceOnUse">
<stop stop-color="#2BEAED"/>
<stop offset="1" stop-color="#0FCCCE"/>
</linearGradient>
<clipPath id="clip0_2041_34">
<rect width="36" height="36" fill="white"/>
</clipPath>
</defs>
</svg>
