<svg width="40" height="40" viewBox="0 0 40 40" fill="none" xmlns="http://www.w3.org/2000/svg">
<path d="M4 11L19.5 2.5L36 11V29L19.5 38L4 29V11Z" fill="white"/>
<path d="M18.32 0.53378C19.32 -0.0324702 20.595 -0.0349702 21.57 0.53378L36.5 8.95003C37.4338 9.47503 38.0588 10.5163 38.05 11.5925V28.4675C38.0563 29.5888 37.37 30.6525 36.385 31.1675L21.535 39.545C21.0271 39.8257 20.4533 39.9653 19.8732 39.9492C19.2931 39.9332 18.7279 39.7621 18.2363 39.4538L13.78 36.8788C13.4763 36.6975 13.135 36.5538 12.92 36.26C13.11 36.005 13.4475 35.9725 13.7225 35.86C14.3425 35.6625 14.91 35.36 15.48 35.04C15.6238 34.94 15.8 34.9775 15.9375 35.0675L19.7375 37.265C20.0088 37.4213 20.2838 37.215 20.5163 37.0838L35.0975 28.855C35.2775 28.7675 35.3775 28.5775 35.3625 28.38V11.6675C35.3825 11.4425 35.2538 11.2375 35.05 11.1463L20.2375 2.80503C20.1521 2.74599 20.0509 2.71426 19.9471 2.71403C19.8433 2.71381 19.7419 2.74511 19.6563 2.80378L4.86501 11.1625C4.66501 11.2538 4.52751 11.4563 4.55251 11.6813V28.3938C4.53501 28.5913 4.64001 28.7775 4.82126 28.8625L8.77376 31.0938C9.51626 31.4938 10.4275 31.7188 11.245 31.425C11.6027 31.2902 11.9107 31.0492 12.1277 30.7345C12.3446 30.4197 12.4601 30.0461 12.4588 29.6638L12.4625 13.0513C12.445 12.805 12.6775 12.6013 12.9163 12.6263H14.8163C15.0663 12.62 15.2625 12.885 15.2288 13.1325L15.225 29.85C15.2263 31.335 14.6163 32.95 13.2425 33.6788C11.55 34.5538 9.45751 34.37 7.78501 33.5288L3.53501 31.1788C2.53501 30.6788 1.86376 29.5988 1.87001 28.4788V11.6038C1.87417 11.0553 2.02495 10.5179 2.30672 10.0474C2.58849 9.5768 2.99099 9.19016 3.47251 8.92753L18.32 0.53378ZM22.625 12.2313C24.7838 12.1063 27.095 12.1488 29.0375 13.2125C30.5413 14.0275 31.375 15.7375 31.4025 17.41C31.36 17.635 31.125 17.76 30.91 17.7438C30.285 17.7425 29.6575 17.7525 29.03 17.74C28.7638 17.75 28.61 17.505 28.5763 17.27C28.3963 16.47 27.96 15.6788 27.2075 15.2925C26.0525 14.7138 24.7125 14.7425 23.4525 14.755C22.5325 14.805 21.5438 14.8838 20.765 15.4238C20.165 15.8338 19.985 16.6738 20.1988 17.3263C20.3988 17.805 20.9525 17.9588 21.4038 18.1013C24.0063 18.7813 26.7625 18.7263 29.3163 19.61C30.3725 19.975 31.4063 20.685 31.7688 21.7913C32.2413 23.2738 32.035 25.0463 30.9813 26.2363C30.1263 27.2163 28.8813 27.7363 27.6375 28.0388C25.9838 28.4075 24.2688 28.4163 22.59 28.2513C21.0113 28.0713 19.3688 27.6563 18.15 26.5813C17.1075 25.6763 16.6 24.2663 16.65 22.9063C16.6625 22.6763 16.8913 22.5163 17.1125 22.535H18.9875C19.24 22.5175 19.425 22.735 19.4375 22.9725C19.5538 23.7225 19.84 24.535 20.505 24.9725C21.7875 25.8 23.3963 25.7425 24.8638 25.7663C26.08 25.7125 27.445 25.6963 28.4388 24.8913C28.9638 24.4325 29.1175 23.6663 28.9763 23.0063C28.8225 22.4488 28.2263 22.19 27.7263 22.0063C25.1575 21.1938 22.37 21.4888 19.8263 20.5688C18.7938 20.2038 17.795 19.5138 17.3988 18.4525C16.845 16.9525 17.0988 15.0938 18.265 13.9438C19.39 12.8 21.04 12.3588 22.6025 12.2013L22.625 12.2313Z" fill="#8CC84B"/>
</svg>
