<svg width="39" height="40" viewBox="0 0 39 40" fill="none" xmlns="http://www.w3.org/2000/svg">
<g clip-path="url(#clip0_2041_83)">
<path d="M19.3335 0.000323347C17.7198 0.00781475 16.1789 0.145318 14.823 0.385041C10.8287 1.09011 10.1035 2.56588 10.1035 5.28744V8.88181H19.5425V10.0799H10.1035H6.56111C3.81787 10.0799 1.41582 11.7274 0.664483 14.8614C-0.20217 18.4537 -0.24061 20.6954 0.664483 24.4464C1.33544 27.2385 2.93778 29.2279 5.68102 29.2279H8.92636V24.919C8.92636 21.8062 11.622 19.0603 14.823 19.0603H24.251C26.8754 19.0603 28.9705 16.9013 28.9705 14.2679V5.28744C28.9705 2.73157 26.8125 0.811607 24.251 0.385041C22.6295 0.115352 20.9471 -0.00716816 19.3335 0.000323347ZM14.2289 2.8912C15.2039 2.8912 16.0001 3.69973 16.0001 4.69388C16.0001 5.6845 15.2039 6.48557 14.2289 6.48557C13.2504 6.48557 12.4577 5.6845 12.4577 4.69388C12.4577 3.69973 13.2504 2.8912 14.2289 2.8912Z" fill="url(#paint0_linear_2041_83)"/>
<path d="M30.1476 10.0798V14.2678C30.1476 17.5146 27.3926 20.2474 24.251 20.2474H14.823C12.2405 20.2474 10.1035 22.4558 10.1035 25.0399V34.0203C10.1035 36.5761 12.3279 38.0795 14.823 38.8128C17.8108 39.6906 20.676 39.8492 24.251 38.8128C26.6273 38.1253 28.9705 36.7418 28.9705 34.0203V30.4259H19.5425V29.2278H28.9705H33.69C36.4332 29.2278 37.4555 27.3159 38.4095 24.4463C39.395 21.4921 39.353 18.6511 38.4095 14.8613C37.7315 12.1327 36.4367 10.0798 33.69 10.0798H30.1476ZM24.845 32.8221C25.8235 32.8221 26.6162 33.6232 26.6162 34.6138C26.6162 35.608 25.8235 36.4165 24.845 36.4165C23.8701 36.4165 23.0739 35.608 23.0739 34.6138C23.0739 33.6232 23.8701 32.8221 24.845 32.8221Z" fill="url(#paint1_linear_2041_83)"/>
</g>
<defs>
<linearGradient id="paint0_linear_2041_83" x1="-1.1754e-07" y1="-1.02018e-07" x2="21.7499" y2="18.5495" gradientUnits="userSpaceOnUse">
<stop stop-color="#5A9FD4"/>
<stop offset="1" stop-color="#306998"/>
</linearGradient>
<linearGradient id="paint1_linear_2041_83" x1="24.6182" y1="34.3116" x2="16.8183" y2="23.3725" gradientUnits="userSpaceOnUse">
<stop stop-color="#FFD43B"/>
<stop offset="1" stop-color="#FFE873"/>
</linearGradient>
<clipPath id="clip0_2041_83">
<rect width="39" height="40" fill="white"/>
</clipPath>
</defs>
</svg>
