<svg width="39" height="39" viewBox="0 0 39 39" fill="none" xmlns="http://www.w3.org/2000/svg">
<path d="M5.05805 35.861L3.85248 3.73779C3.81266 2.67689 4.62612 1.77779 5.6857 1.71156L33.0087 0.00387684C34.0872 -0.0635311 35.0162 0.756143 35.0836 1.83467C35.0861 1.87531 35.0874 1.91601 35.0874 1.95672V36.9606C35.0874 38.0412 34.2114 38.9172 33.1308 38.9172C33.1015 38.9172 33.0722 38.9166 33.043 38.9153L6.92554 37.7423C5.90837 37.6966 5.09624 36.8784 5.05805 35.861Z" fill="#FF4785"/>
<mask id="mask0_2040_223" style="mask-type:luminance" maskUnits="userSpaceOnUse" x="3" y="0" width="33" height="39">
<path d="M5.05805 35.861L3.85248 3.73779C3.81266 2.67689 4.62612 1.77779 5.6857 1.71156L33.0087 0.00387684C34.0872 -0.0635311 35.0162 0.756143 35.0836 1.83467C35.0861 1.87531 35.0874 1.91601 35.0874 1.95672V36.9606C35.0874 38.0412 34.2114 38.9172 33.1308 38.9172C33.1015 38.9172 33.0722 38.9166 33.043 38.9153L6.92554 37.7423C5.90837 37.6966 5.09624 36.8784 5.05805 35.861Z" fill="white"/>
</mask>
<g mask="url(#mask0_2040_223)">
<path d="M26.9168 4.78355L27.1034 0.294821L30.8557 0L31.0173 4.62907C31.023 4.79017 30.8969 4.92533 30.7358 4.93096C30.6668 4.93337 30.5992 4.91125 30.545 4.86854L29.098 3.72865L27.3848 5.02822C27.2564 5.12564 27.0733 5.1005 26.9759 4.97207C26.9348 4.91801 26.914 4.85135 26.9168 4.78355ZM22.118 14.6684C22.118 15.4297 27.2457 15.0648 27.934 14.5301C27.934 9.34616 25.1524 6.62207 20.0589 6.62207C14.9653 6.62207 12.1115 9.38854 12.1115 13.5382C12.1115 20.7657 21.8651 20.904 21.8651 24.8462C21.8651 25.9528 21.3232 26.6098 20.1311 26.6098C18.5778 26.6098 17.9637 25.8165 18.0359 23.1192C18.0359 22.5341 12.1115 22.3516 11.9309 23.1192C11.4709 29.6558 15.5433 31.5411 20.2034 31.5411C24.719 31.5411 28.2592 29.1342 28.2592 24.777C28.2592 17.0309 18.361 17.2384 18.361 13.3999C18.361 11.8438 19.517 11.6363 20.2034 11.6363C20.9259 11.6363 22.2264 11.7636 22.118 14.6684Z" fill="white"/>
</g>
</svg>
