<svg width="46" height="46" viewBox="0 0 46 46" fill="none" xmlns="http://www.w3.org/2000/svg">
<g clip-path="url(#clip0_2040_135)">
<path fill-rule="evenodd" clip-rule="evenodd" d="M4.80269 30.6569L0 25.2857L14.6999 19.9346L16.9877 26.2215L4.80269 30.6569Z" fill="#F89920"/>
<path fill-rule="evenodd" clip-rule="evenodd" d="M4.76748 30.5599L4.54108 37.7618L19.241 32.4107L16.9532 26.1245L4.76748 30.5599Z" fill="#FFBE22"/>
<path fill-rule="evenodd" clip-rule="evenodd" d="M45.619 15.8125C47.7164 21.8895 40.958 29.8741 30.4448 33.7008C19.9316 37.5274 9.62117 35.7542 7.32117 29.7505L45.619 15.8125Z" fill="#F0670A"/>
<path fill-rule="evenodd" clip-rule="evenodd" d="M45.6191 15.8125C43.3334 9.79368 33.0136 8.01406 22.4897 11.8436C11.9658 15.6731 5.20231 23.6713 7.32119 29.7512L45.6191 15.8125Z" fill="#FFD00E"/>
<path fill-rule="evenodd" clip-rule="evenodd" d="M45.6176 15.8125C46.9258 19.8785 39.5801 26.2107 29.1065 30.0251C18.6329 33.8395 8.93407 33.7051 7.32263 29.7505L45.6176 15.8125Z" fill="#F89920"/>
<path fill-rule="evenodd" clip-rule="evenodd" d="M45.6191 15.8124C44.0307 11.8377 34.3254 11.6976 23.8266 15.5177C13.3278 19.3379 5.98434 25.6852 7.32193 29.749L45.6191 15.8124Z" fill="#FFBE22"/>
<path d="M27.9507 10.2961C26.9502 6.83751 25.8124 4.91988 24.518 4.95582C22.0167 5.02769 21.1758 12.9598 21.9851 23.1244C22.8045 33.3968 24.9262 41.1147 27.5719 41.0443C29.1503 41.0026 30.0387 38.4783 30.3506 34.0954C30.3578 34.0055 30.2572 34.0681 30.2629 33.9768C30.2629 33.9768 30.25 33.8172 30.1911 33.8129L29.8554 33.7913C29.5808 38.0463 28.7485 40.4994 27.5583 40.5303C25.3833 40.5878 23.2832 32.9533 22.4983 23.0841C21.7249 13.3767 22.5572 5.52651 24.5323 5.46972C25.4667 5.44313 26.5161 7.2091 27.4433 10.3953L27.9507 10.2961Z" fill="#F0670A"/>
<path d="M15.5537 7.82866C13.4226 9.1411 16.6606 16.4321 22.4444 24.83C28.2893 33.317 33.9861 38.939 36.243 37.5554C37.5044 36.7821 37.1507 34.4346 35.5256 30.8926C35.4897 30.8064 35.4092 30.7453 35.315 30.7345C35.2209 30.7237 35.1296 30.7668 35.0764 30.8438C35.0232 30.9207 35.016 31.022 35.0585 31.1061C36.5678 34.4001 36.8927 36.5542 35.9734 37.117C34.119 38.2526 28.484 32.6931 22.8677 24.5389C17.3449 16.5191 14.1407 9.30497 15.824 8.26781C16.7174 7.71725 18.8427 9.0455 21.653 11.9155C21.6847 11.9471 21.8636 12.1333 21.9046 12.1455C21.9909 12.1721 21.9477 11.9873 22.0175 11.9191C22.0663 11.8716 22.0944 11.8062 22.0951 11.7379C22.0958 11.6697 22.0692 11.6043 22.0218 11.5554C19.0181 8.48128 16.7663 7.07972 15.5537 7.82722V7.82866Z" fill="#F0670A"/>
</g>
<defs>
<clipPath id="clip0_2040_135">
<rect width="46" height="46" fill="white"/>
</clipPath>
</defs>
</svg>
